<svg xmlns="http://www.w3.org/2000/svg" fill="none" viewBox="0 0 31 31"><path d="M5.52531 8.11111c-1.42804 0-2.58586-1.15782-2.58586-2.58586 0-1.42804 1.15782-2.58586 2.58586-2.58586 1.42804 0 2.58586 1.15782 2.58586 2.58586 0 1.42804-1.15782 2.58586-2.58586 2.58586Z" stroke="#66E0EF" stroke-width="2" stroke-miterlimit="10" stroke-linecap="square"/><path d="M7.46465 27.5051H3.58586l-.64647-7.1112L1 19.7475v-5.8182c0-1.428 1.15782-2.5859 2.58586-2.5859h3.87879c.93996 0 1.7629.5023 2.21543 1.2522" stroke="#66E0EF" stroke-width="2" stroke-miterlimit="10"/><path d="M24.9191 8.11111c1.4281 0 2.5859-1.15782 2.5859-2.58586 0-1.42804-1.1578-2.58586-2.5859-2.58586-1.428 0-2.5858 1.15782-2.5858 2.58586 0 1.42804 1.1578 2.58586 2.5858 2.58586Z" stroke="#66E0EF" stroke-width="2" stroke-miterlimit="10" stroke-linecap="square"/><path d="M22.9798 27.5051h3.8788l.6465-7.1112 1.9394-.6464v-5.8182c0-1.428-1.1578-2.5859-2.5859-2.5859h-3.8788c-.9399 0-1.7629.5023-2.2154 1.2522" stroke="#66E0EF" stroke-width="2" stroke-miterlimit="10"/><path d="M15.2223 8.75758c-2.1424 0-3.8788-1.73641-3.8788-3.87879C11.3435 2.7364 13.0799 1 15.2223 1c2.1424 0 3.8788 1.7364 3.8788 3.87879 0 2.14238-1.7364 3.87879-3.8788 3.87879ZM18.4545 29.4444h-6.4646l-.6465-7.7575-2.58583-.6465v-6.4646c0-1.4281 1.15782-2.5859 2.58583-2.5859h7.7576c1.428 0 2.5859 1.1578 2.5859 2.5859v6.4646l-2.5859.6465-.6465 7.7575Z" stroke="#E3C68F" stroke-width="2" stroke-miterlimit="10" stroke-linecap="square"/></svg>