<svg xmlns="http://www.w3.org/2000/svg" fill="none" viewBox="0 0 127 20"><path fill="#E8BC6B" d="M70.997 19.955c-3.285.18-5.921-2.46-6.43-5.414-.602-3.579 1.388-6.8 4.024-9.127.417-.403 1.064.224.648.626-3.33 2.953-6.245 9.441-1.064 12.35 2.313 1.297 5.459.67 6.569-1.88 1.156-2.685-.972-5.906-4.117-4.877-.74.358-1.342 1.03-1.527 1.835a2.31 2.31 0 00.047 1.252c.046.18.138.314.23.448-.045-.627.325-1.298 1.111-1.521 1.758-.448 2.452 1.476 1.434 2.595-1.156 1.252-3.1.715-3.793-.716-.787-1.656.231-3.67 1.711-4.52l.047-.044a2.3 2.3 0 01.323-.134h.047c.046 0 .046-.045.092-.045 2.59-.895 5.228.805 5.644 3.4.463 2.909-1.99 5.593-4.996 5.772zM62.439 13.333c-.416 3.088-3.053 5.906-6.477 5.727-2.914-.134-5.273-2.684-5.042-5.503.231-2.73 2.96-4.564 5.644-3.669.046 0 .046 0 .092.045h.047c.092.045.185.09.323.134l.047.045c1.526.895 2.544 2.908 1.711 4.519-.694 1.432-2.636 1.924-3.793.716-1.064-1.163-.324-3.043 1.434-2.595a1.419 1.419 0 011.11 1.476l.14-.268c.23-.448.23-.985.138-1.432-.185-.805-.74-1.476-1.527-1.835-2.868-.94-5.135 1.835-4.302 4.475.88 2.73 4.302 3.758 6.754 2.282 5.089-3.043 2.406-9.307-1.064-12.35-.416-.402.231-.984.648-.626 2.637 2.282 4.58 5.37 4.117 8.86zM63.688 10.604a.662.662 0 01-.416 0c-.14-.045-.278-.179-.278-.358-.925-2.192-2.73-5.011-2.498-7.427C60.635 1.342 61.837 0 63.503 0c5.69.045 1.434 7.964.462 10.29 0 .135-.092.27-.277.314zm.694-8.68a1.573 1.573 0 00-1.758 0c-1.758 1.342-.093 4.922.879 7.159.971-2.193 2.637-5.817.879-7.16zM78.537 15.481c-.046 0-.046 0 0 0l-.046.045a.365.365 0 01-.463.044h-.046a.637.637 0 01-.185-.134c0-.044-.046-.044-.046-.09-.787-2.236-2.452-5.19-2.082-7.606.231-1.566 1.48-2.818 3.192-2.729 5.644.403.925 8.01-.231 10.291-.047.045-.047.09-.093.179zm-.324-1.566c0 .045.047.09.047.134.046-.044.046-.09.092-.179.37-.716.74-1.476 1.064-2.192.787-1.79 1.295-3.714.093-4.743-.51-.358-1.11-.403-1.666-.09-1.341.85-.971 2.998-.37 4.967.231.671.463 1.387.74 2.103zM49.209 15.392c-.047.089-.14.134-.185.178a.365.365 0 01-.463-.044s0-.045-.046-.045a.335.335 0 01-.093-.179c-1.156-2.282-5.828-9.888-.231-10.29 1.665-.135 2.914 1.118 3.192 2.639.416 2.416-1.296 5.459-2.082 7.696-.046 0-.046 0-.092.045zm.323-3.58c.602-1.969.972-4.161-.37-5.011-.555-.313-1.156-.269-1.665.09-1.203 1.028-.648 2.997.139 4.787.324.671.694 1.387 1.017 2.058.047.09.093.134.14.224 0-.045.046-.09.046-.09.23-.67.462-1.342.693-2.058zM80.434 16.331c-.046 0-.093.045-.093.045h-.231c-.185-.045-.37-.18-.37-.358v-.045-.045c0-.09 0-.179.092-.223.787-2.148 1.388-4.967 2.961-6.712 1.156-1.297 3.146-1.834 4.58-.581 1.341 1.163 1.203 3.042.046 4.295-1.712 1.79-4.811 2.64-6.985 3.624zm6.199-5.906c-.14-.626-.602-1.029-1.25-1.119-1.757-.089-2.544 1.7-3.099 2.954-.416.94-.786 1.834-1.203 2.774.88-.448 1.805-.895 2.683-1.343 1.25-.67 3.192-1.61 2.869-3.266zM47.266 15.928v.09c0 .179-.14.313-.324.358h-.185-.046c-.047 0-.093 0-.093-.045-2.128-.984-5.089-1.79-6.8-3.49-1.25-1.253-1.527-3.221-.093-4.474 1.434-1.208 3.377-.76 4.534.537 1.573 1.745 2.174 4.608 2.96 6.756a.55.55 0 01.047.268zm-5.644-6.666c-.648.134-1.11.492-1.249 1.118-.277 1.656 1.62 2.595 2.868 3.266.88.448 1.804.895 2.683 1.343-.416-.94-.786-1.88-1.203-2.774-.555-1.253-1.387-3.043-3.099-2.953zM91.721 16.331c.833 5.548-8.28 2.46-10.593 1.924-.046 0-.093-.045-.093-.045a.403.403 0 01-.185-.358c0-.09 0-.223.093-.313l.092-.09c2.036-1.163 4.487-3.131 6.94-3.49 1.71-.268 3.469.582 3.746 2.372zm-1.804 1.074c.278-.537.139-1.163-.231-1.566-1.666-1.566-5.089.582-7.217 1.834 2.406.582 6.338 1.656 7.448-.268zM45.97 17.45c.047 0 .093.044.093.09.093.089.093.223.093.312a.403.403 0 01-.186.358c-.046 0-.046.045-.092.045-2.313.537-5.274 1.745-7.68 1.432-1.71-.224-3.191-1.566-2.913-3.356.277-1.7 1.896-2.595 3.562-2.416 2.497.224 5.042 2.327 7.123 3.535zm-8.604-1.656c-.416.448-.509 1.03-.231 1.566 1.11 1.924 5.042.85 7.448.269-2.175-1.253-5.598-3.356-7.217-1.835zM63.503 16.734c.879 0 1.619.716 1.665 1.566.046.895-.648 1.521-1.48 1.655-.046 0-.093.045-.185.045-.046 0-.139 0-.185-.045-.833-.134-1.48-.76-1.48-1.61 0-.895.74-1.611 1.665-1.611zm0 2.326c.971-.044.971-1.476 0-1.476-.972.045-.972 1.432 0 1.476zM78.028 16.734c.88 0 1.62.716 1.666 1.566.046.895-.648 1.521-1.48 1.655-.047 0-.093.045-.186.045-.046 0-.139 0-.185-.045-.832-.134-1.48-.76-1.48-1.61 0-.895.74-1.611 1.665-1.611zm0 2.326c.972-.044.972-1.476 0-1.476-.971.045-.971 1.432 0 1.476zM48.977 16.734c.88 0 1.62.716 1.666 1.566.046.895-.648 1.521-1.48 1.655-.047 0-.093.045-.186.045-.046 0-.138 0-.185-.045-.832-.134-1.48-.76-1.48-1.61 0-.895.74-1.611 1.665-1.611zm0 2.326c.972-.044.972-1.476 0-1.476-.971.045-.971 1.432 0 1.476zM98.521 17.852c-.046 0-.092.045-.185.045-.046 0-.138 0-.185-.045-.832-.134-1.48-.76-1.48-1.61 0-.895.786-1.611 1.665-1.611.88 0 1.62.716 1.666 1.566.046.895-.602 1.521-1.48 1.655zm-.185-2.326c-.971 0-.971 1.431 0 1.476.972-.044 1.018-1.476 0-1.476zM28.854 17.852c-.046 0-.092.045-.185.045-.046 0-.138 0-.185-.045-.832-.134-1.48-.76-1.48-1.61 0-.895.786-1.611 1.665-1.611.88 0 1.62.716 1.666 1.566.046.895-.648 1.521-1.48 1.655zm-.185-2.326c-.971 0-.971 1.431 0 1.476.972-.044.972-1.476 0-1.476zM123.779 17.852c-.046.045-.092.045-.185.045-.046 0-.139 0-.185-.045a.729.729 0 01-.555-.715c0-.403.37-.716.74-.716.416 0 .74.358.74.716.046.357-.231.626-.555.715zM3.597 17.852c-.047.045-.14.045-.185.045-.047 0-.14 0-.185-.045a.73.73 0 01-.555-.715c0-.403.37-.716.74-.716.416 0 .74.358.74.716a.73.73 0 01-.555.715zM120.402 17.852c-.046.045-.139.045-.185.045-.046 0-.139 0-.185-.045a.729.729 0 01-.555-.715c0-.403.37-.716.74-.716.416 0 .74.358.74.716.046.357-.231.626-.555.715zM6.974 17.852c-.047.045-.14.045-.185.045-.047 0-.14 0-.185-.045a.73.73 0 01-.556-.715c0-.403.37-.716.74-.716.417 0 .74.358.74.716a.73.73 0 01-.554.715zM117.025 17.852c-.046.045-.092.045-.185.045-.046 0-.139 0-.185-.045a.729.729 0 01-.555-.715c0-.403.37-.716.74-.716.416 0 .74.358.74.716.046.357-.231.626-.555.715zM10.35 17.852c-.046.045-.138.045-.184.045-.047 0-.14 0-.185-.045a.73.73 0 01-.556-.715c0-.403.37-.716.74-.716.417 0 .74.358.74.716a.73.73 0 01-.554.715zM113.648 17.852c-.046.045-.092.045-.185.045-.046 0-.139 0-.185-.045a.729.729 0 01-.555-.715c0-.403.37-.716.74-.716.416 0 .74.358.74.716.047.357-.231.626-.555.715zM13.727 17.852c-.046.045-.138.045-.184.045-.047 0-.14 0-.185-.045a.73.73 0 01-.556-.715c0-.403.37-.716.74-.716.417 0 .74.358.74.716a.73.73 0 01-.555.715zM110.271 17.852c-.046.045-.139.045-.185.045-.046 0-.139 0-.185-.045a.729.729 0 01-.555-.715c0-.403.37-.716.74-.716.417 0 .74.358.74.716.047.357-.185.626-.555.715zM17.105 17.852c-.047.045-.14.045-.186.045-.046 0-.138 0-.185-.045a.73.73 0 01-.555-.715c0-.403.37-.716.74-.716.417 0 .74.358.74.716a.73.73 0 01-.554.715zM106.941 17.852c-.047.045-.139.045-.185.045-.047 0-.139 0-.186-.045a.73.73 0 01-.555-.715c0-.403.37-.716.741-.716.416 0 .74.358.74.716a.73.73 0 01-.555.715zM20.435 17.852c-.046.045-.139.045-.185.045-.046 0-.139 0-.185-.045a.73.73 0 01-.555-.715c0-.403.37-.716.74-.716.416 0 .74.358.74.716.047.357-.231.626-.555.715zM103.564 17.852c-.093.045-.139.045-.185.045-.047 0-.139 0-.185-.045a.73.73 0 01-.556-.715c0-.403.37-.716.741-.716.416 0 .74.358.74.716a.73.73 0 01-.555.715zM23.812 17.852c-.046.045-.139.045-.185.045-.046 0-.139 0-.185-.045a.73.73 0 01-.555-.715c0-.403.37-.716.74-.716.416 0 .74.358.74.716.046.357-.231.626-.555.715z"/><path fill="#E8BC6B" d="M126.555 19.955H93.063c-.093 0-.185 0-.278-.044a.337.337 0 01-.231-.314c0-.09 0-.223.046-.313s.139-.134.231-.179c3.239-1.924 1.48-7.248-2.359-6.98-.601.045-.601-.85 0-.895 2.267-.178 3.932 1.253 4.58 3.043.046.045.046.09.046.134.046.134.046.269.093.403.138.537.185 1.074.138 1.655 0 .269 0 .492-.046.761-.092 1.074.509 1.655 1.342 1.88h29.883c.648-.046.648.85.047.85zM36.533 12.125c-3.84-.268-5.597 5.012-2.359 6.98.093.045.185.09.232.18.046.089.092.178.046.312a.337.337 0 01-.231.313c-.093.045-.185.045-.278.045H.451c-.601 0-.601-.895 0-.895h29.884c.832-.223 1.387-.76 1.341-1.879 0-.268-.046-.537-.046-.76-.046-.537 0-1.119.139-1.611.046-.134.046-.269.092-.403 0-.045.046-.09.093-.134.694-1.79 2.313-3.177 4.58-3.043.6.045.6.94 0 .895z"/></svg>