<svg xmlns="http://www.w3.org/2000/svg" viewBox="0 0 68 71" fill="none">
<path d="M27.9051 0C27.9593 0.00897106 28.0723 0.0269131 28.1266 0.0358842C29.1932 0.789453 30.5175 1.49592 30.9582 2.79897C30.8474 4.66944 29.1254 5.81997 28.1175 7.23292C27.7492 6.47486 27.3921 5.6114 26.5831 5.21667C26.0633 4.71878 25.3786 4.47207 24.7549 4.13566C25.8147 2.76533 26.861 1.38379 27.9051 0Z" fill="#ffffff"/>
<path d="M36.7796 13.1179C38.0406 11.8485 38.8948 10.2584 40.1015 8.94415C41.1366 9.7022 42.3817 10.3145 42.9716 11.5166C43.2066 12.1917 42.7998 12.8623 42.5964 13.4925C41.7399 14.3716 41.0778 15.4325 40.097 16.1928C39.9501 15.3719 39.3852 14.7327 38.7795 14.1945C38.1355 13.7952 37.4711 13.4297 36.7796 13.1179Z" fill="#ffffff"/>
<path d="M59.4278 20.3957C60.6866 19.1644 61.586 17.6326 62.6911 16.2735C63.9001 16.9463 65.2538 17.7358 65.7351 19.1106C65.595 20.9721 63.8956 22.1204 62.8719 23.5244C62.5984 22.9211 62.3069 22.3065 61.8256 21.8356C61.1725 21.1448 60.2504 20.8308 59.4278 20.3957Z" fill="#ffffff"/>
<path d="M13.546 32.6255C13.7787 31.8652 14.0363 31.1139 14.294 30.3625C15.0668 30.4141 15.5233 31.0376 15.8284 31.6678C16.1493 34.2537 14.8386 36.6199 14.4454 39.1183C14.2669 39.4166 14.0702 39.7059 13.8556 39.9818C13.6657 38.986 14.1719 38.0642 14.3708 37.1133C14.7437 35.9784 14.7685 34.7785 14.6872 33.5989C14.3753 33.2019 14.0137 32.8386 13.546 32.6255Z" fill="#ffffff"/>
<path d="M43.2089 54.0932C44.0224 52.8575 44.958 51.7069 45.7557 50.4622C46.8065 51.4266 48.063 52.2228 48.8336 53.4496C48.9873 54.6674 47.9546 55.6026 47.2653 56.4885C47.3557 56.659 47.4348 56.8361 47.5026 57.02C47.306 57.2959 47.0303 57.0739 46.8178 56.9528C46.4269 57.3228 46.0066 57.6615 45.5772 57.9867C45.5094 57.9979 45.3783 58.0226 45.3105 58.036C44.9648 56.7464 43.9795 55.6475 42.793 55.0554C42.1332 56.4078 41.0439 57.4619 40.0428 58.5631C39.575 57.0335 38.1965 56.031 36.7366 55.5174C36.9242 54.9231 37.4191 54.5126 37.7762 54.0237C38.479 53.0997 39.1501 52.151 39.8371 51.2135C41.227 51.8123 42.3795 52.844 43.2089 54.0932Z" fill="#ffffff"/>
<path d="M34.409 4.68066C34.9423 4.2949 35.4033 3.76337 36.0632 3.58843C36.4632 3.60413 36.6101 3.98989 36.6033 4.33527C36.6214 6.70363 35.4575 9.15497 33.322 10.3302C28.0407 13.3893 22.5402 16.0986 17.5391 19.6152C15.1685 21.1672 12.9313 22.9211 10.8771 24.8678C8.83867 26.9266 7.08955 29.2569 5.55058 31.7015C3.6975 35.0275 2.0252 38.6204 1.83312 42.4757C1.55741 47.2506 3.19807 52.1286 6.39125 55.7237C8.06806 57.7131 10.2827 59.1619 12.5426 60.4201C14.3708 61.3733 16.2849 62.2165 18.321 62.6202C18.1651 64.3046 18.321 66.0539 19.1481 67.5655C13.8578 66.3858 9.01268 63.4097 5.61386 59.2157C1.95967 54.7885 -0.0312667 49.065 0.000371344 43.3504C0.235397 36.3709 3.26813 29.7211 7.68163 24.3676C9.69064 21.6943 12.007 19.2429 14.6714 17.202C20.7752 12.3128 28.2192 9.44877 34.409 4.68066Z" fill="#ffffff"/>
<path d="M38.1038 17.9915C42.5738 17.1213 47.2088 17.8659 51.4596 19.3663C53.9658 20.2477 56.4561 21.3601 58.4358 23.1633C60.7205 24.953 62.3431 27.4671 63.3464 30.1562C64.8831 34.1618 64.8651 38.6361 63.6063 42.7112C62.3295 46.663 60.3679 50.3994 57.8437 53.7097C53.9251 58.8524 48.5173 62.8041 42.5173 65.2308C37.9547 67.0923 33.0779 68.2563 28.1424 68.4312C26.0475 68.2608 23.9029 67.5992 22.2894 66.2176C21.3944 65.4685 20.8611 64.3584 20.8001 63.2011C29.7695 64.6634 39.2202 62.997 47.1636 58.6214C50.9669 56.5132 54.1805 53.5191 57.0075 50.2581C59.5815 47.2618 61.5747 43.6823 62.2504 39.771C62.8267 35.6959 62.151 31.3225 59.7736 27.8843C57.9454 25.2334 55.0256 23.5849 52.1036 22.3626C49.8031 21.3803 47.3218 20.9721 44.8947 20.4226C40.7908 19.5322 36.4948 19.8664 32.461 20.9385C28.4655 22.0262 24.4656 24.029 22.0679 27.503C21.6408 28.0637 21.3696 28.7186 20.9583 29.2883C21.1142 28.4293 21.6475 27.7071 22.1063 26.9849C23.4102 25.1122 25.1345 23.5423 27.0373 22.2819C30.3932 20.1468 34.2011 18.7562 38.1038 17.9915Z" fill="#ffffff"/>
<path d="M16.8905 21.6337C18.4001 20.5527 20.1628 19.6377 22.0792 19.7229C23.0396 19.909 23.0758 21.008 22.669 21.7077C21.8961 23.3449 20.9741 24.9597 20.6984 26.7719C20.0747 30.8021 21.1798 34.8548 20.7346 38.8918C20.4747 42.4084 18.8996 45.795 16.4747 48.3585C18.6894 48.9439 21.112 48.7779 23.2046 47.8314C25.5368 46.8334 27.4667 45.0482 28.8723 42.9691C29.426 42.173 29.7424 41.1413 29.4734 40.1881C29.3559 39.6992 28.8475 39.4996 28.4294 39.3224C27.6949 39.6229 26.9198 39.9728 26.104 39.8248C25.0803 39.5848 24.278 38.5509 24.3707 37.5013C24.6373 36.2453 25.6498 35.3594 26.3029 34.3031C26.7029 33.7267 27.0983 32.9417 27.9141 32.9417C29.2339 32.7937 30.3909 33.711 30.9469 34.8324C32.2824 33.2961 33.105 31.374 34.5265 29.905C35.053 29.3533 35.792 29.0034 36.5694 29.1537C37.4688 30.1854 36.2056 31.5445 36.879 32.6412C37.175 33.1795 37.8372 33.2983 38.375 33.4733C39.853 31.6992 41.3987 29.9656 43.1388 28.436C44.4631 27.2967 45.9975 26.2471 47.7896 26.0766C48.4608 26.0004 49.3421 26.2605 49.5048 27.0007C49.724 28.2858 49.0415 29.4722 48.515 30.5958C47.1365 33.4082 44.9218 35.8842 42.0382 37.2232C40.1919 38.1292 38.0835 38.4948 36.0383 38.2212C35.6474 38.9703 35.1773 39.679 34.6372 40.3316C34.5762 40.3025 34.4519 40.2442 34.3909 40.2173C34.6078 39.3785 35.044 38.6271 35.5253 37.9139C34.3276 36.9428 34.3276 35.3348 34.3954 33.9398C34.4519 33.5316 33.8666 33.5944 33.679 33.7895C32.8338 34.5229 32.1355 35.4043 31.4147 36.2565C31.8169 40.0535 30.4836 43.9245 28.1107 46.894C26.3209 49.4171 23.6362 51.5365 20.4611 51.8707C18.2917 52.2116 16.1064 51.5993 14.2239 50.5429C12.4025 51.8505 10.0771 52.5883 7.82852 52.2138C6.84096 51.9716 6.44097 50.9309 5.80369 50.2514C5.21386 49.4238 4.41161 48.7981 3.57095 48.2396C3.63196 48.1723 3.75625 48.0333 3.81953 47.966C4.69184 48.4056 5.51668 48.9506 6.4613 49.2377C8.42738 49.9239 10.6081 49.6526 12.4929 48.8474C10.5607 46.8043 9.56635 44.0658 9.12342 41.3409C8.55619 36.409 9.58443 31.2843 12.0997 26.9872C13.3313 24.9216 14.9629 23.087 16.8905 21.6337ZM17.4826 24.6996C14.3708 26.819 11.7765 29.8602 10.6466 33.4755C9.75844 36.1668 9.93923 39.0914 10.6149 41.8051C11.2838 44.178 12.6827 46.58 15.0646 47.569C17.6024 46.1023 18.4137 42.9355 18.5176 40.2105C18.416 36.9944 17.9369 33.7962 17.8691 30.5756C17.8758 29.8176 17.9459 29.0483 18.2148 28.3351C18.834 26.5319 20.712 25.4173 21.0916 23.5042C19.7673 23.2956 18.547 24.0133 17.4826 24.6996ZM44.5648 28.4674C42.4247 29.7234 40.6688 31.5535 39.227 33.5473C40.4767 33.4621 41.7173 33.1795 42.8473 32.6367C44.558 31.8293 46.2009 30.8223 47.5274 29.4677C47.0777 28.3553 45.602 27.8507 44.5648 28.4674Z" fill="#ffffff"/>
<path d="M64.7453 29.2098C65.3916 27.2182 66.8198 25.6236 67.934 23.8854C68.1509 24.417 67.7735 24.9059 67.6605 25.415C67.1769 27.0993 67.5543 28.8666 67.265 30.5756C67.1566 31.6791 66.7656 32.7242 66.386 33.7581C66.0515 34.7786 65.5882 35.7654 64.9442 36.6288C64.9781 34.1528 64.1984 31.6768 64.7453 29.2098Z" fill="#ffffff"/>
<path d="M55.8143 28.8218C56.0087 28.4741 56.1239 27.9942 56.5691 27.891C56.2211 30.6743 55.2652 33.397 53.6517 35.7093C52.5827 37.2635 51.0958 38.7056 49.1794 39.1004C47.8529 39.43 46.5218 38.6787 45.1975 39.0331C44.1603 39.2977 43.1795 39.7597 42.1219 39.9504C42.332 39.3381 43.0461 39.1923 43.5456 38.8806C46.6393 37.3712 49.8461 35.9291 52.4223 33.5989C53.8618 32.2532 54.9918 30.6003 55.8143 28.8218Z" fill="#ffffff"/>
<path d="M53.6019 41.6459C56.5849 40.5582 59.4369 39.0869 62.0086 37.2299C62.038 38.2997 61.925 39.3717 61.6877 40.4146C61.5815 41.0157 60.9736 41.3005 60.5736 41.693C56.5398 44.9854 51.7195 47.4255 46.5625 48.3675C43.8665 48.8003 40.9264 49.0291 38.4157 47.7485C37.3739 47.2551 36.6485 46.3423 35.7558 45.6537C35.227 45.2209 34.5265 45.5842 33.9796 45.7883C32.6531 46.4835 31.5367 47.5242 30.5943 48.6725C32.183 48.4594 33.8282 48.2531 35.401 48.6815C36.2575 48.9596 36.5875 49.9755 36.3118 50.7717C35.7197 52.7027 34.4813 54.6943 32.4113 55.2774C30.2644 55.8493 27.9977 55.8247 25.8803 56.5334C24.0046 56.8698 22.1538 57.8701 21.2611 59.6015C20.5108 61.214 19.9707 63.154 20.7368 64.8563C21.5097 66.5787 23.2498 67.6216 24.9786 68.2182C26.5695 68.799 28.2757 68.8977 29.9525 68.9874C32.2485 69.0884 34.5355 68.5411 36.6349 67.6463C37.3264 67.4085 38.0451 67.256 38.7456 67.0407C36.1897 69.3979 32.7209 70.6897 29.2701 70.9543C26.8045 71.1091 24.2012 70.914 22.0069 69.6872C20.043 68.6196 18.6962 66.4666 18.7165 64.2305C18.6058 60.6982 20.321 57.3161 22.7391 54.8087C24.1266 53.5797 25.5571 52.2878 27.3627 51.7047C28.2712 49.989 29.3921 48.3989 30.5762 46.8626C32.2418 44.7992 34.3005 42.8121 36.9377 42.0989C38.0202 41.7491 39.1185 42.1797 40.1603 42.4645C44.5715 43.7048 49.3421 43.2271 53.6019 41.6459Z" fill="#ffffff"/>
</svg>